<mxfile host="app.diagrams.net" modified="2022-03-13T12:06:28.843Z" agent="5.0 (Macintosh; Intel Mac OS X 10_15_7) AppleWebKit/537.36 (KHTML, like Gecko) Chrome/99.0.4844.51 Safari/537.36" etag="ZR8-mNwac81jNukYP0mm" version="17.1.2" type="github">
  <diagram id="Dz0uLCqvaAuM781JMdQ0" name="Page-1">
    <mxGraphModel dx="1226" dy="1153" grid="1" gridSize="10" guides="1" tooltips="1" connect="1" arrows="1" fold="1" page="1" pageScale="1" pageWidth="827" pageHeight="1169" math="0" shadow="0">
      <root>
        <mxCell id="0" />
        <mxCell id="1" parent="0" />
        <mxCell id="GEy9v9i0W4CVfIgPXQKk-1" value="RemoteControl" style="swimlane;fontStyle=1;align=center;verticalAlign=top;childLayout=stackLayout;horizontal=1;startSize=26;horizontalStack=0;resizeParent=1;resizeParentMax=0;resizeLast=0;collapsible=1;marginBottom=0;" vertex="1" parent="1">
          <mxGeometry x="140" y="240" width="160" height="60" as="geometry" />
        </mxCell>
        <mxCell id="GEy9v9i0W4CVfIgPXQKk-3" value="" style="line;strokeWidth=1;fillColor=none;align=left;verticalAlign=middle;spacingTop=-1;spacingLeft=3;spacingRight=3;rotatable=0;labelPosition=right;points=[];portConstraint=eastwest;" vertex="1" parent="GEy9v9i0W4CVfIgPXQKk-1">
          <mxGeometry y="26" width="160" height="8" as="geometry" />
        </mxCell>
        <mxCell id="GEy9v9i0W4CVfIgPXQKk-4" value="+ turnOn()" style="text;strokeColor=none;fillColor=none;align=left;verticalAlign=top;spacingLeft=4;spacingRight=4;overflow=hidden;rotatable=0;points=[[0,0.5],[1,0.5]];portConstraint=eastwest;" vertex="1" parent="GEy9v9i0W4CVfIgPXQKk-1">
          <mxGeometry y="34" width="160" height="26" as="geometry" />
        </mxCell>
        <mxCell id="GEy9v9i0W4CVfIgPXQKk-10" style="edgeStyle=orthogonalEdgeStyle;rounded=0;orthogonalLoop=1;jettySize=auto;html=1;exitX=0.5;exitY=0;exitDx=0;exitDy=0;entryX=0.375;entryY=1;entryDx=0;entryDy=0;entryPerimeter=0;" edge="1" parent="1" source="GEy9v9i0W4CVfIgPXQKk-5" target="GEy9v9i0W4CVfIgPXQKk-4">
          <mxGeometry relative="1" as="geometry" />
        </mxCell>
        <mxCell id="GEy9v9i0W4CVfIgPXQKk-5" value="MovieRemoteControl" style="swimlane;fontStyle=1;align=center;verticalAlign=top;childLayout=stackLayout;horizontal=1;startSize=26;horizontalStack=0;resizeParent=1;resizeParentMax=0;resizeLast=0;collapsible=1;marginBottom=0;" vertex="1" parent="1">
          <mxGeometry x="140" y="440" width="160" height="60" as="geometry" />
        </mxCell>
        <mxCell id="GEy9v9i0W4CVfIgPXQKk-6" value="" style="line;strokeWidth=1;fillColor=none;align=left;verticalAlign=middle;spacingTop=-1;spacingLeft=3;spacingRight=3;rotatable=0;labelPosition=right;points=[];portConstraint=eastwest;" vertex="1" parent="GEy9v9i0W4CVfIgPXQKk-5">
          <mxGeometry y="26" width="160" height="8" as="geometry" />
        </mxCell>
        <mxCell id="GEy9v9i0W4CVfIgPXQKk-7" value="+ turnOn()" style="text;strokeColor=none;fillColor=none;align=left;verticalAlign=top;spacingLeft=4;spacingRight=4;overflow=hidden;rotatable=0;points=[[0,0.5],[1,0.5]];portConstraint=eastwest;" vertex="1" parent="GEy9v9i0W4CVfIgPXQKk-5">
          <mxGeometry y="34" width="160" height="26" as="geometry" />
        </mxCell>
        <mxCell id="GEy9v9i0W4CVfIgPXQKk-11" value="Device" style="swimlane;fontStyle=1;align=center;verticalAlign=top;childLayout=stackLayout;horizontal=1;startSize=26;horizontalStack=0;resizeParent=1;resizeParentMax=0;resizeLast=0;collapsible=1;marginBottom=0;" vertex="1" parent="1">
          <mxGeometry x="500" y="240" width="160" height="60" as="geometry" />
        </mxCell>
        <mxCell id="GEy9v9i0W4CVfIgPXQKk-12" value="" style="line;strokeWidth=1;fillColor=none;align=left;verticalAlign=middle;spacingTop=-1;spacingLeft=3;spacingRight=3;rotatable=0;labelPosition=right;points=[];portConstraint=eastwest;" vertex="1" parent="GEy9v9i0W4CVfIgPXQKk-11">
          <mxGeometry y="26" width="160" height="8" as="geometry" />
        </mxCell>
        <mxCell id="GEy9v9i0W4CVfIgPXQKk-13" value="+ turnOn()" style="text;strokeColor=none;fillColor=none;align=left;verticalAlign=top;spacingLeft=4;spacingRight=4;overflow=hidden;rotatable=0;points=[[0,0.5],[1,0.5]];portConstraint=eastwest;" vertex="1" parent="GEy9v9i0W4CVfIgPXQKk-11">
          <mxGeometry y="34" width="160" height="26" as="geometry" />
        </mxCell>
        <mxCell id="GEy9v9i0W4CVfIgPXQKk-14" style="edgeStyle=orthogonalEdgeStyle;rounded=0;orthogonalLoop=1;jettySize=auto;html=1;exitX=1;exitY=0.5;exitDx=0;exitDy=0;startArrow=diamondThin;startFill=0;" edge="1" parent="1" source="GEy9v9i0W4CVfIgPXQKk-4" target="GEy9v9i0W4CVfIgPXQKk-13">
          <mxGeometry relative="1" as="geometry" />
        </mxCell>
        <mxCell id="GEy9v9i0W4CVfIgPXQKk-18" style="edgeStyle=orthogonalEdgeStyle;rounded=0;orthogonalLoop=1;jettySize=auto;html=1;exitX=0.5;exitY=0;exitDx=0;exitDy=0;entryX=0.463;entryY=0.962;entryDx=0;entryDy=0;entryPerimeter=0;startArrow=diamondThin;startFill=0;" edge="1" parent="1" source="GEy9v9i0W4CVfIgPXQKk-15" target="GEy9v9i0W4CVfIgPXQKk-13">
          <mxGeometry relative="1" as="geometry" />
        </mxCell>
        <mxCell id="GEy9v9i0W4CVfIgPXQKk-15" value="LGTN" style="swimlane;fontStyle=1;align=center;verticalAlign=top;childLayout=stackLayout;horizontal=1;startSize=26;horizontalStack=0;resizeParent=1;resizeParentMax=0;resizeLast=0;collapsible=1;marginBottom=0;" vertex="1" parent="1">
          <mxGeometry x="500" y="440" width="160" height="60" as="geometry" />
        </mxCell>
        <mxCell id="GEy9v9i0W4CVfIgPXQKk-16" value="" style="line;strokeWidth=1;fillColor=none;align=left;verticalAlign=middle;spacingTop=-1;spacingLeft=3;spacingRight=3;rotatable=0;labelPosition=right;points=[];portConstraint=eastwest;" vertex="1" parent="GEy9v9i0W4CVfIgPXQKk-15">
          <mxGeometry y="26" width="160" height="8" as="geometry" />
        </mxCell>
        <mxCell id="GEy9v9i0W4CVfIgPXQKk-17" value="+ turnOn()" style="text;strokeColor=none;fillColor=none;align=left;verticalAlign=top;spacingLeft=4;spacingRight=4;overflow=hidden;rotatable=0;points=[[0,0.5],[1,0.5]];portConstraint=eastwest;" vertex="1" parent="GEy9v9i0W4CVfIgPXQKk-15">
          <mxGeometry y="34" width="160" height="26" as="geometry" />
        </mxCell>
        <mxCell id="GEy9v9i0W4CVfIgPXQKk-20" style="edgeStyle=orthogonalEdgeStyle;rounded=0;orthogonalLoop=1;jettySize=auto;html=1;exitX=0;exitY=0;exitDx=0;exitDy=0;entryX=0.588;entryY=1;entryDx=0;entryDy=0;entryPerimeter=0;startArrow=none;startFill=0;endArrow=none;endFill=0;dashed=1;" edge="1" parent="1" source="GEy9v9i0W4CVfIgPXQKk-19" target="GEy9v9i0W4CVfIgPXQKk-4">
          <mxGeometry relative="1" as="geometry" />
        </mxCell>
        <mxCell id="GEy9v9i0W4CVfIgPXQKk-19" value="device.turnOn()" style="html=1;" vertex="1" parent="1">
          <mxGeometry x="330" y="350" width="110" height="50" as="geometry" />
        </mxCell>
        <mxCell id="GEy9v9i0W4CVfIgPXQKk-21" value="Feature" style="text;html=1;align=center;verticalAlign=middle;resizable=0;points=[];autosize=1;strokeColor=#6c8ebf;fillColor=#dae8fc;" vertex="1" parent="1">
          <mxGeometry x="180" y="190" width="60" height="20" as="geometry" />
        </mxCell>
        <mxCell id="GEy9v9i0W4CVfIgPXQKk-22" value="Implementation" style="text;html=1;align=center;verticalAlign=middle;resizable=0;points=[];autosize=1;strokeColor=#A50040;fillColor=#d80073;fontColor=#ffffff;" vertex="1" parent="1">
          <mxGeometry x="510" y="190" width="100" height="20" as="geometry" />
        </mxCell>
      </root>
    </mxGraphModel>
  </diagram>
</mxfile>
